<svg width="24" height="24" viewBox="0 0 24 24" fill="none" xmlns="http://www.w3.org/2000/svg">
<path d="M12.0166 0C7.02487 0 2.73972 3.06989 0.942905 7.42867C0.887436 7.5559 0.857877 7.69294 0.855958 7.83176C0.854039 7.97057 0.879799 8.10838 0.93173 8.2371C0.98366 8.36582 1.06072 8.48288 1.15839 8.58141C1.25606 8.67993 1.37238 8.75796 1.50054 8.8109C1.6287 8.86385 1.76612 8.89066 1.90475 8.88976C2.04339 8.88886 2.18045 8.86027 2.30792 8.80566C2.43538 8.75106 2.55068 8.67153 2.64707 8.57174C2.74345 8.47195 2.81899 8.35391 2.86925 8.22452C4.35277 4.62574 7.87692 2.08696 12.0166 2.08696C17.4962 2.08696 21.9159 6.5128 21.9159 12C21.9159 17.4872 17.4962 21.913 12.0166 21.913C7.87749 21.913 4.35274 19.3752 2.86925 15.7765C2.81899 15.6471 2.74345 15.5291 2.64707 15.4293C2.55068 15.3295 2.43538 15.25 2.30792 15.1954C2.18045 15.1407 2.04339 15.1122 1.90475 15.1113C1.76612 15.1104 1.6287 15.1372 1.50054 15.1901C1.37238 15.2431 1.25606 15.3211 1.15839 15.4196C1.06072 15.5181 0.98366 15.6352 0.93173 15.7639C0.879799 15.8926 0.854039 16.0304 0.855958 16.1693C0.857877 16.3081 0.887436 16.4451 0.942905 16.5723C2.73975 20.9312 7.02534 24 12.0166 24C18.6225 24 24 18.6151 24 12C24 5.38493 18.6225 0 12.0166 0ZM13.0301 7.29416C12.8228 7.29421 12.6203 7.35617 12.4483 7.47212C12.2764 7.58806 12.1429 7.75272 12.0649 7.94505C11.9868 8.13737 11.9679 8.34862 12.0104 8.55179C12.0529 8.75496 12.155 8.94082 12.3035 9.0856L14.1719 10.9565H1.05688C0.918796 10.9546 0.781702 10.9801 0.653565 11.0317C0.525427 11.0832 0.408801 11.1598 0.310465 11.2569C0.212128 11.354 0.134042 11.4697 0.0807442 11.5972C0.0274464 11.7248 0 11.8617 0 12C0 12.1383 0.0274464 12.2752 0.0807442 12.4028C0.134042 12.5303 0.212128 12.646 0.310465 12.7431C0.408801 12.8402 0.525427 12.9168 0.653565 12.9683C0.781702 13.0199 0.918796 13.0454 1.05688 13.0435H14.1719L12.3035 14.9144C12.2035 15.0106 12.1237 15.1257 12.0687 15.2532C12.0137 15.3806 11.9846 15.5177 11.9832 15.6566C11.9818 15.7954 12.0081 15.9331 12.0605 16.0616C12.1129 16.1902 12.1904 16.3069 12.2884 16.4051C12.3864 16.5033 12.503 16.5809 12.6314 16.6333C12.7598 16.6858 12.8973 16.7121 13.0359 16.7107C13.1745 16.7093 13.3115 16.6802 13.4388 16.6251C13.566 16.57 13.681 16.4901 13.7771 16.3899L17.4242 12.7378C17.6195 12.5421 17.7293 12.2767 17.7293 12C17.7293 11.7233 17.6195 11.4579 17.4242 11.2622L13.7771 7.61005C13.6799 7.5101 13.5638 7.43064 13.4355 7.37638C13.3072 7.32212 13.1694 7.29417 13.0301 7.29416Z" fill="#33A9BF"/>
</svg>
