<svg width="12" height="13" viewBox="0 0 12 13" fill="none" xmlns="http://www.w3.org/2000/svg">
<path d="M11.6599 11.0742C12.0486 11.4628 12.0472 12.095 11.6568 12.4853C11.2665 12.8757 10.6343 12.8771 10.2457 12.4884L5.99999 8.2427L1.75425 12.4884C1.36564 12.8771 0.733457 12.8757 0.343134 12.4853C-0.0471888 12.095 -0.0485752 11.4628 0.34004 11.0742L4.58577 6.82849L0.340039 2.58276C-0.0485758 2.19414 -0.0471895 1.56196 0.343133 1.17164C0.733456 0.781314 1.36564 0.779928 1.75425 1.16854L5.99999 5.41428L10.2457 1.16854C10.6343 0.779928 11.2665 0.781314 11.6568 1.17164C12.0472 1.56196 12.0486 2.19414 11.6599 2.58276L7.4142 6.82849L11.6599 11.0742Z" fill="#33A9BF"/>
</svg>
